<svg xmlns="http://www.w3.org/2000/svg" viewBox="0 0 20.61 20.42"><defs><style>.cls-1{fill:#44c9f2;}.cls-2{fill:#40c0dd;}</style></defs><g id="Layer_2" data-name="Layer 2"><g id="Layer_1-2" data-name="Layer 1"><path class="cls-1" d="M20.61,10.4v8.91a1.1,1.1,0,0,1-.38.83,1.06,1.06,0,0,1-.74.28H12.21a1.11,1.11,0,0,1-1.11-1.11V10.4a1.12,1.12,0,0,1,1.11-1.12h7.28A1.12,1.12,0,0,1,20.61,10.4Z"/><path class="cls-2" d="M20.61,1.12V6.58a1.12,1.12,0,0,1-1.12,1.11H12.21A1.11,1.11,0,0,1,11.1,6.58V1.12A1.12,1.12,0,0,1,12.21,0h7.28a1.07,1.07,0,0,1,.74.29A1.1,1.1,0,0,1,20.61,1.12Z"/><path class="cls-1" d="M9.51,1.12V10A1.12,1.12,0,0,1,8.4,11.16H1.11A1.12,1.12,0,0,1,0,10V1.12A1.07,1.07,0,0,1,.38.29,1,1,0,0,1,1.11,0H8.4A1.12,1.12,0,0,1,9.51,1.12Z"/><path class="cls-2" d="M9.51,13.86v5.45A1.11,1.11,0,0,1,8.4,20.42H1.11a1.07,1.07,0,0,1-.73-.28A1.07,1.07,0,0,1,0,19.31V13.86a1.11,1.11,0,0,1,1.11-1.11H8.4A1.11,1.11,0,0,1,9.51,13.86Z"/></g></g></svg>