<svg xmlns="http://www.w3.org/2000/svg" viewBox="0 0 23.78 19.94"><defs><style>.cls-1{fill:#54c3ef;}.cls-2{fill:#40c0dd;}.cls-3{fill:#0df;}.cls-4{fill:#00d2e8;}.cls-5{fill:#206ffd;}.cls-6{fill:#fff;}</style></defs><g id="Layer_2" data-name="Layer 2"><g id="Layer_1-2" data-name="Layer 1"><path class="cls-1" d="M1.64,0h8.67a0,0,0,0,1,0,0V14.67a0,0,0,0,1,0,0H1.64A1.64,1.64,0,0,1,0,13V1.65A1.64,1.64,0,0,1,1.64,0Z"/><path class="cls-1" d="M12,0h8.67a0,0,0,0,1,0,0V14.67a0,0,0,0,1,0,0H12A1.64,1.64,0,0,1,10.32,13V1.65A1.64,1.64,0,0,1,12,0Z" transform="translate(30.95 14.67) rotate(180)"/><path class="cls-2" d="M10.32,4.35V14.67H1.64A1.65,1.65,0,0,1,0,13L8.73,5A2.36,2.36,0,0,1,10.32,4.35Z"/><path class="cls-1" d="M20.63,13A1.65,1.65,0,0,1,19,14.67H10.32V4.35A2.35,2.35,0,0,1,11.9,5Z"/><path class="cls-3" d="M10.32,0V10.32a2.35,2.35,0,0,1-1.59-.61L0,1.65A1.65,1.65,0,0,1,1.64,0Z"/><path class="cls-4" d="M20.63,1.65,11.9,9.71a2.34,2.34,0,0,1-1.58.61V0H19A1.65,1.65,0,0,1,20.63,1.65Z"/><rect class="cls-5" x="13.52" y="8.19" width="10.26" height="11.75" rx="1.55"/><rect class="cls-6" x="15.29" y="10.17" width="6.73" height="1.99"/><rect class="cls-6" x="15.29" y="12.88" width="6.73" height="0.54"/><rect class="cls-6" x="15.29" y="14.13" width="6.73" height="0.54"/><rect class="cls-6" x="15.29" y="16.47" width="3.37" height="0.39"/><rect class="cls-6" x="18.65" y="16.47" width="3.37" height="0.39"/><rect class="cls-6" x="15.29" y="15.38" width="6.73" height="0.38"/><rect class="cls-6" x="15.29" y="17.58" width="6.73" height="0.38"/></g></g></svg>