<svg xmlns="http://www.w3.org/2000/svg" xmlns:xlink="http://www.w3.org/1999/xlink" viewBox="0 0 210.86 215.86"><defs><style>.cls-1{fill:url(#linear-gradient);}.cls-2{fill:#83d0d4;opacity:0.8;}.cls-3{fill:url(#radial-gradient);}.cls-4{fill:#fff;}.cls-5{fill:url(#linear-gradient-2);}</style><linearGradient id="linear-gradient" x1="105.43" y1="215.86" x2="105.43" y2="29.84" gradientUnits="userSpaceOnUse"><stop offset="0" stop-color="#3e9cd6"/><stop offset="1" stop-color="#0098cc"/></linearGradient><radialGradient id="radial-gradient" cx="105.43" cy="151.24" r="113.49" gradientTransform="translate(0 65.34) scale(1 0.57)" gradientUnits="userSpaceOnUse"><stop offset="0" stop-color="#4891cd"/><stop offset="1" stop-color="#00c7f3"/></radialGradient><linearGradient id="linear-gradient-2" x1="105.43" y1="215.86" x2="105.43" y2="119.19" gradientUnits="userSpaceOnUse"><stop offset="0" stop-color="#49a5dc"/><stop offset="0.32" stop-color="#32b4e8"/><stop offset="0.57" stop-color="#3fbbec"/><stop offset="1" stop-color="#0df"/></linearGradient></defs><g id="Layer_2" data-name="Layer 2"><g id="Layer_1-2" data-name="Layer 1"><path class="cls-1" d="M176.64,215.86H34.22A34.22,34.22,0,0,1,0,181.65V91.08a34.21,34.21,0,0,1,22.08-32l71.21-27a34.2,34.2,0,0,1,24.28,0l71.21,27a34.21,34.21,0,0,1,22.08,32v90.57A34.22,34.22,0,0,1,176.64,215.86Z"/><rect class="cls-2" x="30.83" width="149.2" height="185.04" rx="14.09"/><path class="cls-3" d="M210.85,86.62v95a34.22,34.22,0,0,1-34.22,34.21H34.21A34.21,34.21,0,0,1,0,181.65v-95l3.36.66A32.38,32.38,0,0,1,15,92.05l72.59,48.23a34.21,34.21,0,0,0,35.77,0L196.4,91.81a32.23,32.23,0,0,1,14.45-5.19Z"/><rect class="cls-4" x="50.83" y="20" width="71.1" height="12.31" rx="3.59"/><rect class="cls-4" x="50.83" y="40" width="108" height="12.31" rx="3.59"/><rect class="cls-4" x="50.83" y="60" width="31.03" height="12.31" rx="3.59"/><rect class="cls-4" x="50.83" y="80" width="108" height="12.31" rx="3.59"/><rect class="cls-4" x="50.83" y="100" width="65.96" height="12.31" rx="3.59"/><path class="cls-5" d="M210.85,154.15v27.5a34.22,34.22,0,0,1-34.22,34.21H34.21A34.21,34.21,0,0,1,0,181.65v-27.5H0a85.1,85.1,0,0,1,17.07-7.92L89.46,122a47.1,47.1,0,0,1,31.94,0l72.39,24.25a85,85,0,0,1,17.06,7.92Z"/></g></g></svg>