<svg xmlns="http://www.w3.org/2000/svg" viewBox="0 0 21.86 24.99"><defs><style>.cls-1{fill:#0df;}.cls-2{fill:#00d2e8;}.cls-3{fill:#4db6d6;}.cls-4{fill:#54c3ef;}.cls-5{fill:#fff;}.cls-6{fill:#ffae00;}.cls-7{fill:#ffb600;}.cls-8{fill:#ffbf00;}.cls-9{fill:#20a92e;}</style></defs><g id="Layer_2" data-name="Layer 2"><g id="Layer_1-2" data-name="Layer 1"><path class="cls-1" d="M14.89,4.67a4.67,4.67,0,0,1-4.68,4.68V0A4.67,4.67,0,0,1,14.89,4.67Z"/><path class="cls-2" d="M10.21,0V9.35a4.68,4.68,0,0,1,0-9.35Z"/><path class="cls-3" d="M10.21,11.06V23.22A29.88,29.88,0,0,1,0,21.43v-.16A10.21,10.21,0,0,1,10.21,11.06Z"/><path class="cls-4" d="M20.42,21.27v.16a29.84,29.84,0,0,1-10.21,1.79V11.06A10.21,10.21,0,0,1,20.42,21.27Z"/><circle class="cls-5" cx="17.64" cy="20.76" r="4.23"/><circle class="cls-6" cx="17.64" cy="18.4" r="0.33"/><path class="cls-7" d="M18,18.4a.33.33,0,0,1-.33.33.35.35,0,0,1-.3-.17l.13,0a.33.33,0,0,0,.33-.33.27.27,0,0,0,0-.16A.34.34,0,0,1,18,18.4Z"/><circle class="cls-7" cx="17.64" cy="22.83" r="0.63"/><path class="cls-6" d="M17.31,23.37a.63.63,0,0,0,1-.54.64.64,0,0,0-.63-.64h0a.62.62,0,0,1,.31.54A.63.63,0,0,1,17.31,23.37Z"/><rect class="cls-8" x="15.24" y="22.37" width="4.78" height="0.68" rx="0.31"/><path class="cls-7" d="M19.26,21.4V20a1.62,1.62,0,0,0-1.62-1.62h0A1.62,1.62,0,0,0,16,20V21.4a1.2,1.2,0,0,1-.48,1h4.21A1.23,1.23,0,0,1,19.26,21.4Z"/><path class="cls-6" d="M19.74,22.37H19a1.42,1.42,0,0,1-.35-1V20a1.5,1.5,0,0,0-1.09-1.62h.13A1.62,1.62,0,0,1,19.26,20V21.4a1.23,1.23,0,0,0,.48,1Z"/><path class="cls-6" d="M20,22.69v0a.32.32,0,0,1-.32.32H19a.32.32,0,0,0,.32-.32v0a.32.32,0,0,0-.32-.32h.76A.32.32,0,0,1,20,22.69Z"/><rect class="cls-9" x="15.81" y="8.82" width="5.64" height="1.05" transform="translate(27.98 -9.28) rotate(90)"/><rect class="cls-9" x="15.81" y="8.82" width="5.64" height="1.05"/></g></g></svg>