<svg xmlns="http://www.w3.org/2000/svg" viewBox="0 0 24.33 24.86"><defs><style>.cls-1{fill:#0df;}.cls-2{fill:#00d2e8;}.cls-3{fill:#4db6d6;}.cls-4{fill:#54c3ef;}.cls-5{fill:#fff;}.cls-6{fill:#ffbf00;}.cls-7{fill:#ffae00;}.cls-8{fill:#ffb600;}</style></defs><g id="Layer_2" data-name="Layer 2"><g id="Layer_1-2" data-name="Layer 1"><path class="cls-1" d="M14.88,4.67a4.67,4.67,0,0,1-4.67,4.68V0A4.67,4.67,0,0,1,14.88,4.67Z"/><path class="cls-2" d="M10.21,0V9.35a4.68,4.68,0,1,1,0-9.35Z"/><path class="cls-3" d="M10.21,11.06V23.22A30.08,30.08,0,0,1,0,21.43v-.16A10.21,10.21,0,0,1,10.21,11.06Z"/><path class="cls-4" d="M20.42,21.27v.16a30.12,30.12,0,0,1-10.21,1.79V11.06A10.21,10.21,0,0,1,20.42,21.27Z"/><path class="cls-5" d="M18.82,18.68v-.75a4.26,4.26,0,0,1,0-.62,1.17,1.17,0,0,1,1.21-1h2.1a.75.75,0,0,1,.73-.72.73.73,0,0,1,.53.23l.7.69a.71.71,0,0,1,0,1.05c-.22.24-.45.47-.69.7a.77.77,0,0,1-.54.23.75.75,0,0,1-.73-.71H20.29v.94Z"/><rect class="cls-5" x="14.66" y="16.63" width="6.69" height="9.76" rx="0.91" transform="translate(39.52 3.51) rotate(90)"/><path class="cls-6" d="M14,24.36l2.92-2.53.6.52a.71.71,0,0,0,1,0l.6-.52L22,24.36Z"/><path class="cls-7" d="M19.3,18.69c0,.35-.06.73.26,1s.68.12,1.05.18a.63.63,0,0,1-.1.12l-2.28,2c-.14.12-.26.17-.41,0l-3.76-3.26,0,0Z"/><path class="cls-8" d="M13.62,24.05V19l2.92,2.53Z"/><path class="cls-8" d="M22.38,19.85v4.2l-2.91-2.53.61-.53c.39-.34.77-.68,1.18-1a.6.6,0,0,1,.32-.12C21.84,19.84,22.11,19.85,22.38,19.85Z"/><path class="cls-7" d="M23,16.7c-.09-.08-.19-.15-.28-.24a.22.22,0,0,1,0-.33.21.21,0,0,1,.34,0c.24.22.47.45.69.68a.23.23,0,0,1,0,.35l-.69.69a.22.22,0,0,1-.35,0,.21.21,0,0,1,0-.34,2.78,2.78,0,0,1,.27-.21L23,17.25H20.15c-.3,0-.36.06-.37.37v.57h-.46a7.38,7.38,0,0,1,0-.82.68.68,0,0,1,.72-.59H23Z"/><path class="cls-7" d="M22.38,19.38H20.05a.24.24,0,0,1-.26-.27c0-.13,0-.27,0-.44h2C22.27,18.67,22.44,18.86,22.38,19.38Z"/><path class="cls-7" d="M22.89,19.82v-.44h.2a.24.24,0,0,0,.26-.28q0-.32,0-.63c0-.16.07-.27.24-.27s.24.12.24.28v.58A.72.72,0,0,1,22.89,19.82Z"/></g></g></svg>