<svg xmlns="http://www.w3.org/2000/svg" viewBox="0 0 24.52 24.54"><defs><style>.cls-1{fill:#44c9f2;}.cls-2{fill:#0df;}.cls-3{fill:#40c0dd;}.cls-4{fill:#206ffd;}.cls-5{fill:#fff;}</style></defs><g id="Layer_2" data-name="Layer 2"><g id="Layer_1-2" data-name="Layer 1"><path class="cls-1" d="M.24,14.67A12.26,12.26,0,0,1,21.05,3.72l-.5.5A11.55,11.55,0,0,0,.93,14.53Z"/><polygon class="cls-1" points="18.57 4.29 18.57 3.86 20.66 3.88 20.52 1.79 20.95 1.76 21.11 4.3 18.57 4.29"/><path class="cls-1" d="M12.25,24.54a12.22,12.22,0,0,1-8.78-3.72L4,20.33A11.55,11.55,0,0,0,23.59,10l.7-.14a12.28,12.28,0,0,1-12,14.67Z"/><polygon class="cls-1" points="5.96 20.26 5.96 20.68 3.87 20.66 4 22.75 3.58 22.78 3.41 20.24 5.96 20.26"/><path class="cls-2" d="M12.32,11.6h-.26A3.34,3.34,0,0,1,8.73,8.26V6.85a3.34,3.34,0,0,1,3.33-3.34h.26a3.35,3.35,0,0,1,3.34,3.34V8.26A3.35,3.35,0,0,1,12.32,11.6Zm-.26-7A2.23,2.23,0,0,0,9.84,6.85V8.26a2.23,2.23,0,0,0,2.22,2.23h.26a2.23,2.23,0,0,0,2.23-2.23V6.85a2.23,2.23,0,0,0-2.23-2.23Z"/><path class="cls-3" d="M17.25,9.85v5.67a1.93,1.93,0,0,1-1.93,1.94H9A1.89,1.89,0,0,1,7.8,17l8.71-8.71A1.92,1.92,0,0,1,17.25,9.85Z"/><path class="cls-1" d="M16.51,8.33,7.8,17a1.92,1.92,0,0,1-.74-1.52V9.85A1.93,1.93,0,0,1,9,7.91h6.33A1.91,1.91,0,0,1,16.51,8.33Z"/><circle class="cls-2" cx="12.15" cy="11.51" r="0.68"/><polygon class="cls-2" points="12.73 12.83 11.57 12.83 11.72 11.62 12.58 11.62 12.73 12.83"/><path class="cls-4" d="M16.52,13.53H7.76A2.47,2.47,0,0,0,5.28,16v.15a2.48,2.48,0,0,0,2.48,2.47H9.39V20.5l1.88-1.88h5.25A2.48,2.48,0,0,0,19,16.15V16A2.47,2.47,0,0,0,16.52,13.53Z"/><rect class="cls-5" x="7.85" y="15.03" width="0.49" height="2.09"/><rect class="cls-5" x="7.85" y="15.03" width="0.49" height="2.09" transform="translate(-1.77 31.12) rotate(-120)"/><rect class="cls-5" x="7.85" y="15.03" width="0.49" height="2.09" transform="matrix(-0.5, 0.87, -0.87, -0.5, 26.07, 17.1)"/><rect class="cls-5" x="10.55" y="15.03" width="0.49" height="2.09"/><rect class="cls-5" x="10.55" y="15.03" width="0.49" height="2.09" transform="translate(2.27 33.46) rotate(-120)"/><rect class="cls-5" x="10.55" y="15.03" width="0.49" height="2.09" transform="matrix(-0.5, 0.87, -0.87, -0.5, 30.11, 14.76)"/><rect class="cls-5" x="13.24" y="15.03" width="0.49" height="2.09"/><rect class="cls-5" x="13.24" y="15.03" width="0.49" height="2.09" transform="translate(6.31 35.79) rotate(-120)"/><rect class="cls-5" x="13.24" y="15.03" width="0.49" height="2.09" transform="matrix(-0.5, 0.87, -0.87, -0.5, 34.15, 12.43)"/><rect class="cls-5" x="15.93" y="15.03" width="0.49" height="2.09"/><rect class="cls-5" x="15.93" y="15.03" width="0.49" height="2.09" transform="translate(10.35 38.12) rotate(-120)"/><rect class="cls-5" x="15.93" y="15.03" width="0.49" height="2.09" transform="matrix(-0.5, 0.87, -0.87, -0.5, 38.19, 10.1)"/></g></g></svg>