<svg xmlns="http://www.w3.org/2000/svg" viewBox="0 0 20.39 26.99"><defs><style>.cls-1{fill:#0df;}.cls-2{fill:#40c0dd;}.cls-3{fill:#44c9f2;}.cls-4{fill:#fff;}.cls-5{fill:#20a92e;}.cls-6{fill:#009f24;}</style></defs><g id="Layer_2" data-name="Layer 2"><g id="Layer_1-2" data-name="Layer 1"><path class="cls-1" d="M9.41,14.28H9a5.9,5.9,0,0,1-5.9-5.89V5.89A5.9,5.9,0,0,1,9,0h.45a5.9,5.9,0,0,1,5.9,5.89v2.5A5.9,5.9,0,0,1,9.41,14.28ZM9,2A3.94,3.94,0,0,0,5,5.89v2.5A3.93,3.93,0,0,0,9,12.32h.45a3.93,3.93,0,0,0,3.93-3.93V5.89A3.94,3.94,0,0,0,9.41,2Z"/><path class="cls-2" d="M18.23,11.23V21.37a3.46,3.46,0,0,1-3.47,3.46H3.46a3.47,3.47,0,0,1-2.14-.74L16.91,8.5A3.46,3.46,0,0,1,18.23,11.23Z"/><path class="cls-3" d="M16.91,8.5,1.32,24.09A3.48,3.48,0,0,1,0,21.37V11.23A3.46,3.46,0,0,1,3.46,7.76h11.3A3.5,3.5,0,0,1,16.91,8.5Z"/><circle class="cls-1" cx="9.11" cy="15.66" r="1.19"/><polygon class="cls-1" points="10.14 17.99 8.08 17.99 8.35 15.86 9.87 15.86 10.14 17.99"/><path class="cls-4" d="M15.61,27a4.79,4.79,0,1,1,4.78-4.79A4.79,4.79,0,0,1,15.61,27Zm0-9.27a4.49,4.49,0,1,0,4.48,4.48A4.49,4.49,0,0,0,15.61,17.72Z"/><circle class="cls-5" cx="15.61" cy="22.2" r="4.63"/><path class="cls-6" d="M15.61,26.84a4.64,4.64,0,0,1,0-9.27Z"/><path class="cls-4" d="M17.71,21.63a2.17,2.17,0,0,0-4.14-.19l-.3-.11a2.5,2.5,0,0,1,4.75.21Z"/><polygon class="cls-4" points="14.41 21.14 14.34 20.96 13.47 21.33 13.17 20.44 12.99 20.5 13.35 21.59 14.41 21.14"/><path class="cls-4" d="M15.61,24.7a2.51,2.51,0,0,1-2.41-1.83l.31-.09a2.18,2.18,0,0,0,4.14.19l.3.11A2.5,2.5,0,0,1,15.61,24.7Z"/><polygon class="cls-4" points="16.81 23.27 16.88 23.45 17.75 23.08 18.05 23.97 18.23 23.91 17.87 22.82 16.81 23.27"/></g></g></svg>